# xmcd CD database file
#
# Track frame offsets:
#	150
#	12190
#	22525
#	75080
#	91510
#	126407
#	155015
#	168935
#	179672
#	192072
#	215035
#
# Disc length: 3043 seconds
#
# Revision: 0
# Processed by: cddbd v1.5.1PL0 Copyright (c) Steve Scherf et al.
# Submitted via: CDex 1.51
#
DISCID=790be10b
DTITLE=加山雄三 - THE CHAMP 〜東宝映画 若大将グラフィティ〜 disc
DYEAR=1900
DGENRE=J-Pop
TTITLE0=ロンリー・ナイト・カミング
TTITLE1=シェリー
TTITLE2=ある日渚に
TTITLE3=ある日渚に
TTITLE4=フレッシュマン若大将
TTITLE5=りんどう小唄
TTITLE6=いい娘だから
TTITLE7=クール・クール・ナイト
TTITLE8=幻のアマリリア
TTITLE9=ホワイ・ドン・チュウ
TTITLE10=幻のアマリリア
EXTD=
EXTT0=
EXTT1=
EXTT2=
EXTT3=
EXTT4=
EXTT5=
EXTT6=
EXTT7=
EXTT8=
EXTT9=
EXTT10=
PLAYORDER=
